<svg width="128" height="128" viewBox="0 0 128 128" fill="none" xmlns="http://www.w3.org/2000/svg">
<path d="M120.163 0H7.83673C3.51556 0 0 3.51556 0 7.83673V120.163C0 124.484 3.51556 128 7.83673 128H120.163C124.484 128 128 124.484 128 120.163V7.83673C128 3.51556 124.484 0 120.163 0ZM122.776 120.163C122.776 121.604 121.604 122.776 120.163 122.776H7.83673C6.39634 122.776 5.22449 121.604 5.22449 120.163V7.83673C5.22449 6.39634 6.39634 5.22449 7.83673 5.22449H120.163C121.604 5.22449 122.776 6.39634 122.776 7.83673V120.163Z" fill="#EF7C1A"/>
<path d="M90.1225 47.0204H77.0613V33.9683C77.0812 33.9644 77.1007 33.9613 77.1185 33.9592H87.5103C88.953 33.9592 90.1225 32.7897 90.1225 31.3469V13.0612C90.1225 11.6187 88.953 10.449 87.5103 10.449H71.8368C61.0566 10.449 55.9152 16.2061 53.5004 21.0359C50.9678 26.1005 50.9388 31.1351 50.9388 31.3469V47.0204H37.8776C36.4349 47.0204 35.2654 48.1899 35.2654 49.6327V70.5306C35.2654 71.9734 36.4349 73.1429 37.8776 73.1429H48.3266V113.633C48.3266 115.075 49.4961 116.245 50.9388 116.245H74.4491C75.8918 116.245 77.0613 115.075 77.0613 113.633V70.5306H87.5103C88.8104 70.5306 89.9125 69.5748 90.0961 68.2877L92.7084 50.002C92.8155 49.2523 92.5921 48.4932 92.0958 47.9211C91.5997 47.349 90.8798 47.0204 90.1225 47.0204ZM85.2447 65.3061H74.4491C73.0063 65.3061 71.8368 66.4756 71.8368 67.9184V111.02H53.5511V70.5306C53.5511 69.0881 52.3816 67.9184 50.9388 67.9184H40.4899V52.2449H53.5511C54.9938 52.2449 56.1633 51.0754 56.1633 49.6327V31.355C56.1636 31.3138 56.2127 27.1963 58.2471 23.226C60.8157 18.2147 65.388 15.6735 71.8368 15.6735H84.898V28.7347H77.0613C74.5287 28.7347 71.8368 30.5656 71.8368 33.9592V49.6327C71.8368 51.0754 73.0063 52.2449 74.4491 52.2449H87.1106L85.2447 65.3061Z" fill="#EF7C1A"/>
</svg>
