<svg width="128" height="128" viewBox="0 0 128 128" fill="none" xmlns="http://www.w3.org/2000/svg">
<path d="M64 0C28.6393 0 0 29.0748 0 64.9732C0 95.5079 20.638 120.85 48.482 127.994C48.1607 127.182 48.0027 126.043 48.0027 124.909V113.861H40.0014C35.682 113.861 31.6786 111.914 29.9193 108.337C27.8386 104.438 27.5173 98.4275 22.2393 94.6895C20.638 93.39 21.918 92.0906 23.6773 92.2509C27.038 93.2241 29.7559 95.5023 32.3159 98.9086C34.8759 102.32 35.998 103.133 40.7966 103.133C43.0352 103.133 46.5539 102.973 49.7566 102.481C51.5159 97.9298 54.5552 93.8711 58.2373 91.9247C36.7986 89.3257 26.5586 78.6038 26.5586 63.9834C26.5586 57.6464 29.2766 51.6357 33.7593 46.4379C32.3214 41.4004 30.3986 31.0047 34.402 26.9459C44.0048 26.9459 49.762 33.2829 51.2 34.9031C55.9986 33.2773 61.282 32.3041 66.718 32.3041C72.3173 32.3041 77.4373 33.2773 82.2359 34.9031C83.6739 33.2773 89.4366 26.9459 99.0339 26.9459C102.874 30.8443 101.115 41.4004 99.5132 46.4379C103.996 51.4754 106.556 57.6464 106.556 63.9834C106.556 78.6038 96.4739 89.3257 75.1986 91.5984C81.1193 94.6839 85.2807 103.454 85.2807 109.951V124.749C85.2807 125.235 85.1227 125.722 85.1227 126.208C110.08 117.438 128 93.4011 128 64.9732C128 29.0748 99.3607 0 64 0Z" fill="#EF7C1A"/>
</svg>
