<svg width="128" height="128" viewBox="0 0 128 128" fill="none" xmlns="http://www.w3.org/2000/svg">
<g clip-path="url(#clip0)">
<path fill-rule="evenodd" clip-rule="evenodd" d="M56.2616 51.9988H68.6277V58.3354H68.8197C70.5479 55.2247 74.7723 51.9988 81.0321 51.9988C94.0894 51.9988 96.5089 60.1404 96.5089 70.7399V92.2844H83.6052V73.1593C83.6052 68.5893 83.5284 62.7519 76.8845 62.7519C70.1638 62.7519 69.1269 67.706 69.1269 72.8521V92.2844H56.2232V51.9988H56.2616ZM64.0192 0C81.685 0 97.6994 7.18152 109.297 18.7411C120.895 30.339 128.038 46.315 128.038 64.0192C128.038 81.685 120.857 97.6994 109.297 109.297C97.6994 120.895 81.7234 128.038 64.0192 128.038C46.3534 128.038 30.339 120.857 18.7411 109.297C7.14311 97.6994 0 81.7234 0 64.0192C0 46.3534 7.18152 30.339 18.7411 18.7411C30.339 7.14311 46.315 0 64.0192 0ZM105.995 22.0054C95.2415 11.2523 80.4176 4.60846 64.0192 4.60846C47.6208 4.60846 32.7585 11.2523 22.0438 22.0054C11.2907 32.7585 4.64686 47.5824 4.64686 63.9808C4.64686 80.3792 11.2907 95.2415 22.0438 105.956C32.7969 116.709 47.6208 123.353 64.0192 123.353C80.4176 123.353 95.2799 116.709 105.995 105.956C116.748 95.2031 123.392 80.3792 123.392 63.9808C123.392 47.5824 116.748 32.7201 105.995 22.0054ZM47.3135 40.8233C47.3135 44.5485 44.318 47.544 40.5929 47.544C36.8677 47.544 33.8722 44.5485 33.8722 40.8233C33.8722 37.0981 36.8677 34.1026 40.5929 34.1026C44.318 34.1026 47.3135 37.0981 47.3135 40.8233ZM33.8722 51.9988H47.3135V92.2844H33.8722V51.9988Z" fill="white"/>
</g>
<defs>
<clipPath id="clip0">
<rect width="128" height="128" fill="white"/>
</clipPath>
</defs>
</svg>
