<svg width="128" height="128" viewBox="0 0 128 128" fill="none" xmlns="http://www.w3.org/2000/svg">
<g clip-path="url(#clip0)">
<path d="M128 24.3039C123.291 26.3946 118.229 27.8026 112.917 28.4373C118.341 25.1893 122.507 20.0426 124.464 13.9093C119.392 16.9173 113.771 19.1039 107.787 20.2826C103.003 15.1786 96.1707 11.9893 88.6187 11.9893C71.664 11.9893 59.2053 27.8079 63.0347 44.2293C41.216 43.1359 21.8667 32.6826 8.912 16.7946C2.032 28.5973 5.344 44.0373 17.0347 51.8559C12.736 51.7173 8.68267 50.5386 5.14667 48.5706C4.85867 60.7359 13.5787 72.1173 26.208 74.6506C22.512 75.6533 18.464 75.8879 14.3467 75.0986C17.6853 85.5306 27.3813 93.1199 38.88 93.3333C27.84 101.989 13.9307 105.856 0 104.213C11.6213 111.664 25.4293 116.011 40.256 116.011C89.0133 116.011 116.56 74.8319 114.896 37.8986C120.027 34.1919 124.48 29.5679 128 24.3039V24.3039Z" fill="white"/>
</g>
<defs>
<clipPath id="clip0">
<rect width="128" height="128" fill="white"/>
</clipPath>
</defs>
</svg>
