<svg width="128" height="128" viewBox="0 0 128 128" fill="none" xmlns="http://www.w3.org/2000/svg">
<path d="M102.546 16.9796H25.4537C11.4181 16.9796 0 28.4343 0 42.5117V85.4857C0 99.5657 11.4181 111.018 25.4537 111.018H102.546C116.582 111.018 128 99.5631 128 85.4857V42.5117C128 28.4343 116.582 16.9796 102.546 16.9796ZM122.776 85.4883C122.776 96.687 113.701 105.796 102.546 105.796H25.4537C14.2994 105.796 5.22449 96.6844 5.22449 85.4883V42.5117C5.22449 31.3156 14.2994 22.2041 25.4537 22.2041H102.546C113.701 22.2041 122.776 31.3156 122.776 42.5117V85.4883Z" fill="white"/>
<path d="M87.1446 63.0544L50.9519 41.856C50.1474 41.3858 49.1469 41.3779 48.3345 41.8429C47.5221 42.3079 47.0205 43.1726 47.0205 44.1104V86.5045C47.0205 87.4397 47.5221 88.3069 48.3319 88.7719C48.7341 89.0018 49.1834 89.1167 49.6328 89.1167C50.0899 89.1167 50.5444 88.9966 50.9519 88.7588L87.1446 67.5657C87.9439 67.0981 88.4377 66.2387 88.4377 65.3113C88.4377 64.384 87.9466 63.5219 87.1446 63.0544ZM52.245 81.9461V48.6661L80.6558 65.3087L52.245 81.9461Z" fill="white"/>
</svg>
